Aleo-Regular.ufo
<glyph name="percent" format="1">
  <advance width="765"/>
  <unicode hex="0025"/>
  <note>
    percent
  </note>
  <outline>
    <contour>
      <point x="344" y="572"/>
      <point x="340" y="598"/>
      <point x="332" y="620" type="curve" smooth="yes"/>
      <point x="324" y="642"/>
      <point x="314" y="661"/>
      <point x="300" y="677" type="curve" smooth="yes"/>
      <point x="286" y="693"/>
      <point x="269" y="704"/>
      <point x="249" y="712" type="curve" smooth="yes"/>
      <point x="229" y="720"/>
      <point x="208" y="724"/>
      <point x="186" y="724" type="curve" smooth="yes"/>
      <point x="164" y="724"/>
      <point x="143" y="720"/>
      <point x="124" y="712" type="curve" smooth="yes"/>
      <point x="105" y="704"/>
      <point x="87" y="693"/>
      <point x="73" y="677" type="curve" smooth="yes"/>
      <point x="59" y="661"/>
      <point x="48" y="642"/>
      <point x="40" y="620" type="curve" smooth="yes"/>
      <point x="32" y="598"/>
      <point x="28" y="572"/>
      <point x="28" y="544" type="curve" smooth="yes"/>
      <point x="28" y="516"/>
      <point x="32" y="490"/>
      <point x="40" y="468" type="curve" smooth="yes"/>
      <point x="48" y="446"/>
      <point x="59" y="428"/>
      <point x="73" y="413" type="curve" smooth="yes"/>
      <point x="87" y="398"/>
      <point x="104" y="386"/>
      <point x="123" y="378" type="curve" smooth="yes"/>
      <point x="142" y="370"/>
      <point x="164" y="366"/>
      <point x="186" y="366" type="curve" smooth="yes"/>
      <point x="207" y="366"/>
      <point x="226" y="370"/>
      <point x="246" y="378" type="curve" smooth="yes"/>
      <point x="266" y="386"/>
      <point x="283" y="398"/>
      <point x="297" y="413" type="curve" smooth="yes"/>
      <point x="311" y="428"/>
      <point x="324" y="446"/>
      <point x="332" y="468" type="curve" smooth="yes"/>
      <point x="340" y="490"/>
      <point x="344" y="516"/>
      <point x="344" y="544" type="curve" smooth="yes"/>
    </contour>
    <contour>
      <point x="275" y="544" type="line"/>
      <point x="275" y="522"/>
      <point x="272" y="503"/>
      <point x="268" y="488" type="curve" smooth="yes"/>
      <point x="264" y="473"/>
      <point x="257" y="462"/>
      <point x="249" y="452" type="curve" smooth="yes"/>
      <point x="241" y="442"/>
      <point x="231" y="435"/>
      <point x="220" y="431" type="curve" smooth="yes"/>
      <point x="209" y="427"/>
      <point x="198" y="425"/>
      <point x="186" y="425" type="curve" smooth="yes"/>
      <point x="174" y="425"/>
      <point x="161" y="427"/>
      <point x="150" y="431" type="curve" smooth="yes"/>
      <point x="139" y="435"/>
      <point x="130" y="442"/>
      <point x="122" y="452" type="curve" smooth="yes"/>
      <point x="114" y="462"/>
      <point x="107" y="473"/>
      <point x="103" y="488" type="curve" smooth="yes"/>
      <point x="99" y="503"/>
      <point x="96" y="522"/>
      <point x="96" y="544" type="curve" smooth="yes"/>
      <point x="96" y="566"/>
      <point x="98" y="584"/>
      <point x="102" y="600" type="curve" smooth="yes"/>
      <point x="106" y="616"/>
      <point x="113" y="628"/>
      <point x="121" y="638" type="curve" smooth="yes"/>
      <point x="129" y="648"/>
      <point x="139" y="655"/>
      <point x="150" y="659" type="curve" smooth="yes"/>
      <point x="161" y="663"/>
      <point x="172" y="666"/>
      <point x="184" y="666" type="curve" smooth="yes"/>
      <point x="196" y="666"/>
      <point x="209" y="663"/>
      <point x="220" y="659" type="curve" smooth="yes"/>
      <point x="231" y="655"/>
      <point x="240" y="648"/>
      <point x="248" y="638" type="curve" smooth="yes"/>
      <point x="256" y="628"/>
      <point x="263" y="616"/>
      <point x="267" y="600" type="curve" smooth="yes"/>
      <point x="271" y="584"/>
      <point x="274" y="566"/>
      <point x="274" y="544" type="curve"/>
    </contour>
    <contour>
      <point x="594" y="698" type="line"/>
      <point x="73" y="0" type="line"/>
      <point x="139" y="0" type="line" smooth="yes"/>
      <point x="145" y="0"/>
      <point x="152" y="2"/>
      <point x="156" y="4" type="curve" smooth="yes"/>
      <point x="160" y="6"/>
      <point x="164" y="10"/>
      <point x="168" y="14" type="curve"/>
      <point x="691" y="716" type="line"/>
      <point x="627" y="716" type="line" smooth="yes"/>
      <point x="619" y="716"/>
      <point x="613" y="715"/>
      <point x="608" y="712" type="curve" smooth="yes"/>
      <point x="603" y="709"/>
      <point x="598" y="705"/>
      <point x="594" y="699" type="curve"/>
    </contour>
    <contour>
      <point x="739" y="170" type="line"/>
      <point x="739" y="198"/>
      <point x="735" y="224"/>
      <point x="727" y="246" type="curve" smooth="yes"/>
      <point x="719" y="268"/>
      <point x="708" y="287"/>
      <point x="694" y="303" type="curve" smooth="yes"/>
      <point x="680" y="319"/>
      <point x="662" y="330"/>
      <point x="642" y="338" type="curve" smooth="yes"/>
      <point x="622" y="346"/>
      <point x="602" y="350"/>
      <point x="580" y="350" type="curve" smooth="yes"/>
      <point x="558" y="350"/>
      <point x="536" y="346"/>
      <point x="517" y="338" type="curve" smooth="yes"/>
      <point x="498" y="330"/>
      <point x="480" y="319"/>
      <point x="466" y="303" type="curve" smooth="yes"/>
      <point x="452" y="287"/>
      <point x="441" y="268"/>
      <point x="433" y="246" type="curve" smooth="yes"/>
      <point x="425" y="224"/>
      <point x="421" y="198"/>
      <point x="421" y="170" type="curve" smooth="yes"/>
      <point x="421" y="142"/>
      <point x="425" y="116"/>
      <point x="433" y="94" type="curve" smooth="yes"/>
      <point x="441" y="72"/>
      <point x="452" y="54"/>
      <point x="466" y="39" type="curve" smooth="yes"/>
      <point x="480" y="24"/>
      <point x="497" y="12"/>
      <point x="516" y="4" type="curve" smooth="yes"/>
      <point x="535" y="-4"/>
      <point x="557" y="-8"/>
      <point x="579" y="-8" type="curve" smooth="yes"/>
      <point x="600" y="-8"/>
      <point x="620" y="-4"/>
      <point x="639" y="4" type="curve" smooth="yes"/>
      <point x="658" y="12"/>
      <point x="676" y="24"/>
      <point x="690" y="39" type="curve" smooth="yes"/>
      <point x="704" y="54"/>
      <point x="716" y="72"/>
      <point x="724" y="94" type="curve" smooth="yes"/>
      <point x="732" y="116"/>
      <point x="737" y="142"/>
      <point x="737" y="170" type="curve"/>
    </contour>
    <contour>
      <point x="668" y="170" type="line"/>
      <point x="668" y="148"/>
      <point x="665" y="129"/>
      <point x="661" y="114" type="curve" smooth="yes"/>
      <point x="657" y="99"/>
      <point x="650" y="88"/>
      <point x="642" y="78" type="curve" smooth="yes"/>
      <point x="634" y="68"/>
      <point x="625" y="61"/>
      <point x="614" y="57" type="curve" smooth="yes"/>
      <point x="603" y="53"/>
      <point x="590" y="51"/>
      <point x="578" y="51" type="curve" smooth="yes"/>
      <point x="566" y="51"/>
      <point x="555" y="53"/>
      <point x="544" y="57" type="curve" smooth="yes"/>
      <point x="533" y="61"/>
      <point x="523" y="68"/>
      <point x="515" y="78" type="curve" smooth="yes"/>
      <point x="507" y="88"/>
      <point x="500" y="99"/>
      <point x="496" y="114" type="curve" smooth="yes"/>
      <point x="492" y="129"/>
      <point x="489" y="147"/>
      <point x="489" y="169" type="curve" smooth="yes"/>
      <point x="489" y="191"/>
      <point x="492" y="209"/>
      <point x="496" y="225" type="curve" smooth="yes"/>
      <point x="500" y="241"/>
      <point x="506" y="252"/>
      <point x="514" y="262" type="curve" smooth="yes"/>
      <point x="522" y="272"/>
      <point x="531" y="280"/>
      <point x="542" y="284" type="curve" smooth="yes"/>
      <point x="553" y="288"/>
      <point x="566" y="290"/>
      <point x="578" y="290" type="curve" smooth="yes"/>
      <point x="590" y="290"/>
      <point x="601" y="288"/>
      <point x="612" y="284" type="curve" smooth="yes"/>
      <point x="623" y="280"/>
      <point x="633" y="272"/>
      <point x="641" y="262" type="curve" smooth="yes"/>
      <point x="649" y="252"/>
      <point x="656" y="241"/>
      <point x="660" y="225" type="curve" smooth="yes"/>
      <point x="664" y="209"/>
      <point x="667" y="190"/>
      <point x="667" y="168" type="curve"/>
    </contour>
  </outline>
</glyph>
<glyph name="quotesingle" format="1">
  <advance width="164"/>
  <unicode hex="0027"/>
  <note>
    quotesingle
  </note>
  <outline>
    <contour>
      <point x="121" y="716" type="line"/>
      <point x="44" y="716" type="line"/>
      <point x="44" y="572" type="line"/>
      <point x="52" y="494" type="line"/>
      <point x="54" y="484"/>
      <point x="57" y="475"/>
      <point x="62" y="469" type="curve" smooth="yes"/>
      <point x="67" y="463"/>
      <point x="74" y="460"/>
      <point x="82" y="460" type="curve" smooth="yes"/>
      <point x="92" y="460"/>
      <point x="100" y="463"/>
      <point x="104" y="469" type="curve" smooth="yes"/>
      <point x="108" y="475"/>
      <point x="112" y="484"/>
      <point x="113" y="494" type="curve" smooth="yes"/>
      <point x="121" y="571" type="line"/>
    </contour>
  </outline>
</glyph>
<glyph name="colon" format="1">
  <advance width="207"/>
  <unicode hex="003A"/>
  <note>
    colon
  </note>
  <outline>
    <contour>
      <point x="42" y="55" type="line"/>
      <point x="42" y="46"/>
      <point x="44" y="38"/>
      <point x="47" y="30" type="curve" smooth="yes"/>
      <point x="50" y="22"/>
      <point x="54" y="16"/>
      <point x="60" y="10" type="curve" smooth="yes"/>
      <point x="66" y="4"/>
      <point x="72" y="1"/>
      <point x="80" y="-2" type="curve" smooth="yes"/>
      <point x="88" y="-5"/>
      <point x="96" y="-7"/>
      <point x="104" y="-7" type="curve" smooth="yes"/>
      <point x="112" y="-7"/>
      <point x="120" y="-5"/>
      <point x="128" y="-2" type="curve" smooth="yes"/>
      <point x="136" y="1"/>
      <point x="141" y="4"/>
      <point x="147" y="10" type="curve" smooth="yes"/>
      <point x="153" y="16"/>
      <point x="157" y="22"/>
      <point x="160" y="30" type="curve" smooth="yes"/>
      <point x="163" y="38"/>
      <point x="164" y="45"/>
      <point x="164" y="54" type="curve" smooth="yes"/>
      <point x="164" y="62"/>
      <point x="163" y="70"/>
      <point x="160" y="78" type="curve" smooth="yes"/>
      <point x="157" y="86"/>
      <point x="153" y="92"/>
      <point x="147" y="98" type="curve" smooth="yes"/>
      <point x="141" y="104"/>
      <point x="136" y="108"/>
      <point x="128" y="112" type="curve" smooth="yes"/>
      <point x="120" y="116"/>
      <point x="112" y="116"/>
      <point x="104" y="116" type="curve" smooth="yes"/>
      <point x="96" y="116"/>
      <point x="88" y="116"/>
      <point x="80" y="112" type="curve" smooth="yes"/>
      <point x="72" y="108"/>
      <point x="66" y="104"/>
      <point x="60" y="98" type="curve" smooth="yes"/>
      <point x="54" y="92"/>
      <point x="50" y="86"/>
      <point x="47" y="78" type="curve" smooth="yes"/>
      <point x="44" y="70"/>
      <point x="42" y="62"/>
      <point x="42" y="54" type="curve"/>
    </contour>
    <contour>
      <point x="42" y="430" type="line"/>
      <point x="42" y="421"/>
      <point x="44" y="412"/>
      <point x="47" y="404" type="curve" smooth="yes"/>
      <point x="50" y="396"/>
      <point x="54" y="391"/>
      <point x="60" y="385" type="curve" smooth="yes"/>
      <point x="66" y="379"/>
      <point x="72" y="375"/>
      <point x="80" y="372" type="curve" smooth="yes"/>
      <point x="88" y="369"/>
      <point x="96" y="368"/>
      <point x="104" y="368" type="curve" smooth="yes"/>
      <point x="112" y="368"/>
      <point x="120" y="369"/>
      <point x="128" y="372" type="curve" smooth="yes"/>
      <point x="136" y="375"/>
      <point x="141" y="379"/>
      <point x="147" y="385" type="curve" smooth="yes"/>
      <point x="153" y="391"/>
      <point x="157" y="396"/>
      <point x="160" y="404" type="curve" smooth="yes"/>
      <point x="163" y="412"/>
      <point x="164" y="420"/>
      <point x="164" y="429" type="curve" smooth="yes"/>
      <point x="164" y="437"/>
      <point x="163" y="445"/>
      <point x="160" y="453" type="curve" smooth="yes"/>
      <point x="157" y="461"/>
      <point x="153" y="466"/>
      <point x="147" y="472" type="curve" smooth="yes"/>
      <point x="141" y="478"/>
      <point x="136" y="482"/>
      <point x="128" y="486" type="curve" smooth="yes"/>
      <point x="120" y="490"/>
      <point x="112" y="491"/>
      <point x="104" y="491" type="curve" smooth="yes"/>
      <point x="96" y="491"/>
      <point x="88" y="490"/>
      <point x="80" y="486" type="curve" smooth="yes"/>
      <point x="72" y="482"/>
      <point x="66" y="478"/>
      <point x="60" y="472" type="curve" smooth="yes"/>
      <point x="54" y="466"/>
      <point x="50" y="461"/>
      <point x="47" y="453" type="curve" smooth="yes"/>
      <point x="44" y="445"/>
      <point x="42" y="437"/>
      <point x="42" y="429" type="curve"/>
    </contour>
  </outline>
</glyph>
<glyph name="C" format="1">
  <advance width="635"/>
  <unicode hex="0043"/>
  <note>
    C
  </note>
  <outline>
    <contour>
      <point x="516" y="708"/>
      <point x="443" y="725"/>
      <point x="388" y="724" type="curve"/>
      <point x="278" y="724"/>
      <point x="188" y="690"/>
      <point x="122" y="622" type="curve" smooth="yes"/>
      <point x="56" y="554"/>
      <point x="22" y="466"/>
      <point x="22" y="358" type="curve" smooth="yes"/>
      <point x="22" y="149"/>
      <point x="151" y="-8"/>
      <point x="364" y="-8" type="curve" smooth="yes"/>
      <point x="474" y="-8"/>
      <point x="560" y="28"/>
      <point x="622" y="100" type="curve"/>
      <point x="584" y="142" type="line"/>
      <point x="577" y="149"/>
      <point x="566" y="152"/>
      <point x="552" y="140" type="curve"/>
      <point x="499" y="91"/>
      <point x="443" y="76"/>
      <point x="369" y="76" type="curve" smooth="yes"/>
      <point x="217" y="76"/>
      <point x="120" y="192"/>
      <point x="120" y="358" type="curve" smooth="yes"/>
      <point x="120" y="444"/>
      <point x="145" y="513"/>
      <point x="193" y="565" type="curve" smooth="yes"/>
      <point x="269" y="645"/>
      <point x="380" y="662"/>
      <point x="530" y="614" type="curve"/>
      <point x="538" y="524" type="line"/>
      <point x="540" y="512"/>
      <point x="548" y="506"/>
      <point x="560" y="506" type="curve" smooth="yes"/>
      <point x="608" y="506" type="line"/>
      <point x="608" y="674" type="line"/>
    </contour>
    <contour>
      <point x="318" y="716" type="move" name="top"/>
    </contour>
    <contour>
      <point x="318" y="0" type="move" name="bottom"/>
    </contour>
  </outline>
</glyph>
<glyph name="K" format="1">
  <advance width="710"/>
  <unicode hex="004B"/>
  <note>
    K
  </note>
  <outline>
    <contour>
      <point x="670" y="59" type="line"/>
      <point x="664" y="61"/>
      <point x="647" y="64"/>
      <point x="619" y="70" type="curve"/>
      <point x="392" y="340" type="line" smooth="yes"/>
      <point x="376" y="360"/>
      <point x="360" y="372"/>
      <point x="346" y="376" type="curve"/>
      <point x="358" y="382"/>
      <point x="371" y="392"/>
      <point x="385" y="408" type="curve" smooth="yes"/>
      <point x="598" y="649" type="line"/>
      <point x="624" y="655"/>
      <point x="638" y="659"/>
      <point x="644" y="661" type="curve"/>
      <point x="654" y="663"/>
      <point x="660" y="670"/>
      <point x="660" y="680" type="curve"/>
      <point x="658" y="718" type="line"/>
      <point x="432" y="718" type="line"/>
      <point x="432" y="678" type="line" smooth="yes"/>
      <point x="432" y="668"/>
      <point x="436" y="662"/>
      <point x="446" y="660" type="curve" smooth="yes"/>
      <point x="452" y="659"/>
      <point x="466" y="656"/>
      <point x="490" y="652" type="curve"/>
      <point x="290" y="424" type="line" smooth="yes"/>
      <point x="278" y="410"/>
      <point x="260" y="404"/>
      <point x="238" y="404" type="curve" smooth="yes"/>
      <point x="202" y="404" type="line"/>
      <point x="202" y="644" type="line"/>
      <point x="210" y="646"/>
      <point x="228" y="650"/>
      <point x="258" y="656" type="curve" smooth="yes"/>
      <point x="268" y="658"/>
      <point x="274" y="665"/>
      <point x="274" y="675" type="curve" smooth="yes"/>
      <point x="274" y="718" type="line"/>
      <point x="33" y="718" type="line"/>
      <point x="33" y="675" type="line" smooth="yes"/>
      <point x="33" y="665"/>
      <point x="38" y="658"/>
      <point x="48" y="656" type="curve"/>
      <point x="54" y="654"/>
      <point x="73" y="650"/>
      <point x="105" y="644" type="curve"/>
      <point x="105" y="74" type="line"/>
      <point x="48" y="62" type="line" smooth="yes"/>
      <point x="38" y="60"/>
      <point x="33" y="54"/>
      <point x="33" y="44" type="curve" smooth="yes"/>
      <point x="33" y="1" type="line"/>
      <point x="274" y="1" type="line"/>
      <point x="274" y="44" type="line" smooth="yes"/>
      <point x="274" y="54"/>
      <point x="268" y="60"/>
      <point x="258" y="62" type="curve" smooth="yes"/>
      <point x="231" y="68"/>
      <point x="213" y="72"/>
      <point x="202" y="74" type="curve"/>
      <point x="202" y="330" type="line"/>
      <point x="246" y="330" type="line" smooth="yes"/>
      <point x="254" y="330"/>
      <point x="262" y="330"/>
      <point x="271" y="328" type="curve" smooth="yes"/>
      <point x="280" y="326"/>
      <point x="290" y="318"/>
      <point x="302" y="306" type="curve"/>
      <point x="509" y="68" type="line"/>
      <point x="482" y="62"/>
      <point x="467" y="59"/>
      <point x="463" y="59" type="curve"/>
      <point x="453" y="57"/>
      <point x="449" y="52"/>
      <point x="449" y="42" type="curve" smooth="yes"/>
      <point x="449" y="2" type="line"/>
      <point x="684" y="2" type="line"/>
      <point x="684" y="42" type="line" smooth="yes"/>
      <point x="684" y="52"/>
      <point x="679" y="58"/>
      <point x="669" y="60" type="curve"/>
    </contour>
    <contour>
      <point x="355" y="716" type="move" name="top"/>
    </contour>
    <contour>
      <point x="355" y="0" type="move" name="bottom"/>
    </contour>
  </outline>
</glyph>
<glyph name="Y" format="1">
  <advance width="701"/>
  <unicode hex="0059"/>
  <note>
    Y
  </note>
  <outline>
    <contour>
      <point x="442" y="716" type="line"/>
      <point x="442" y="674" type="line" smooth="yes"/>
      <point x="442" y="664"/>
      <point x="446" y="657"/>
      <point x="456" y="655" type="curve" smooth="yes"/>
      <point x="490" y="648"/>
      <point x="510" y="644"/>
      <point x="514" y="644" type="curve"/>
      <point x="380" y="416" type="line" smooth="yes"/>
      <point x="370" y="399"/>
      <point x="360" y="378"/>
      <point x="351" y="352" type="curve"/>
      <point x="343" y="376"/>
      <point x="332" y="397"/>
      <point x="322" y="415" type="curve" smooth="yes"/>
      <point x="188" y="643" type="line"/>
      <point x="192" y="643"/>
      <point x="211" y="647"/>
      <point x="245" y="654" type="curve" smooth="yes"/>
      <point x="255" y="656"/>
      <point x="260" y="663"/>
      <point x="260" y="673" type="curve" smooth="yes"/>
      <point x="260" y="716" type="line"/>
      <point x="20" y="716" type="line"/>
      <point x="20" y="673" type="line" smooth="yes"/>
      <point x="20" y="663"/>
      <point x="24" y="656"/>
      <point x="34" y="654" type="curve" smooth="yes"/>
      <point x="44" y="652"/>
      <point x="60" y="648"/>
      <point x="84" y="642" type="curve"/>
      <point x="302" y="284" type="line"/>
      <point x="302" y="72" type="line"/>
      <point x="246" y="60" type="line" smooth="yes"/>
      <point x="236" y="58"/>
      <point x="230" y="52"/>
      <point x="230" y="42" type="curve" smooth="yes"/>
      <point x="230" y="-1" type="line"/>
      <point x="302" y="-1" type="line"/>
      <point x="399" y="-1" type="line"/>
      <point x="471" y="-1" type="line"/>
      <point x="471" y="42" type="line" smooth="yes"/>
      <point x="471" y="52"/>
      <point x="466" y="58"/>
      <point x="456" y="60" type="curve" smooth="yes"/>
      <point x="422" y="66"/>
      <point x="403" y="71"/>
      <point x="399" y="72" type="curve"/>
      <point x="399" y="284" type="line"/>
      <point x="618" y="642" type="line"/>
      <point x="644" y="648"/>
      <point x="662" y="652"/>
      <point x="670" y="654" type="curve" smooth="yes"/>
      <point x="678" y="656"/>
      <point x="682" y="662"/>
      <point x="682" y="672" type="curve" smooth="yes"/>
      <point x="682" y="716" type="line"/>
    </contour>
    <contour>
      <point x="351" y="716" type="move" name="top"/>
    </contour>
    <contour>
      <point x="351" y="0" type="move" name="bottom"/>
    </contour>
    <contour>
      <point x="20" y="716" type="move" name="topleft"/>
    </contour>
  </outline>
</glyph>
<glyph name="bracketright" format="1">
  <advance width="259"/>
  <unicode hex="005D"/>
  <note>
    bracketright
  </note>
  <outline>
    <contour>
      <point x="21" y="-110" type="line"/>
      <point x="21" y="-144" type="line"/>
      <point x="205" y="-144" type="line"/>
      <point x="205" y="766" type="line"/>
      <point x="21" y="766" type="line"/>
      <point x="21" y="732" type="line" smooth="yes"/>
      <point x="21" y="726"/>
      <point x="24" y="719"/>
      <point x="28" y="715" type="curve" smooth="yes"/>
      <point x="32" y="711"/>
      <point x="38" y="708"/>
      <point x="46" y="708" type="curve" smooth="yes"/>
      <point x="130" y="708" type="line"/>
      <point x="130" y="-86" type="line"/>
      <point x="46" y="-86" type="line" smooth="yes"/>
      <point x="38" y="-86"/>
      <point x="32" y="-88"/>
      <point x="28" y="-92" type="curve" smooth="yes"/>
      <point x="24" y="-96"/>
      <point x="20" y="-103"/>
      <point x="20" y="-109" type="curve"/>
    </contour>
  </outline>
</glyph>
<glyph name="grave" format="1">
  <advance width="271"/>
  <unicode hex="0060"/>
  <note>
    grave
  </note>
  <outline>
    <contour>
      <point x="36" y="724" type="line"/>
      <point x="154" y="596" type="line"/>
      <point x="158" y="591"/>
      <point x="163" y="587"/>
      <point x="167" y="585" type="curve" smooth="yes"/>
      <point x="171" y="583"/>
      <point x="177" y="582"/>
      <point x="184" y="582" type="curve" smooth="yes"/>
      <point x="235" y="582" type="line"/>
      <point x="160" y="703" type="line"/>
      <point x="156" y="711"/>
      <point x="152" y="716"/>
      <point x="146" y="720" type="curve" smooth="yes"/>
      <point x="140" y="724"/>
      <point x="132" y="724"/>
      <point x="121" y="724" type="curve" smooth="yes"/>
    </contour>
  </outline>
</glyph>
<glyph name="a" format="1">
  <advance width="513"/>
  <unicode hex="0061"/>
  <note>
    a
  </note>
  <outline>
    <contour>
      <point x="472" y="62" type="line"/>
      <point x="466" y="64"/>
      <point x="436" y="70"/>
      <point x="422" y="73" type="curve"/>
      <point x="422" y="326" type="line" smooth="yes"/>
      <point x="422" y="354"/>
      <point x="419" y="380"/>
      <point x="411" y="404" type="curve" smooth="yes"/>
      <point x="403" y="428"/>
      <point x="392" y="448"/>
      <point x="377" y="464" type="curve" smooth="yes"/>
      <point x="362" y="480"/>
      <point x="344" y="492"/>
      <point x="322" y="502" type="curve" smooth="yes"/>
      <point x="300" y="512"/>
      <point x="274" y="516"/>
      <point x="246" y="516" type="curve" smooth="yes"/>
      <point x="206" y="516"/>
      <point x="170" y="510"/>
      <point x="138" y="496" type="curve" smooth="yes"/>
      <point x="106" y="482"/>
      <point x="76" y="463"/>
      <point x="48" y="436" type="curve"/>
      <point x="64" y="408" type="line"/>
      <point x="66" y="404"/>
      <point x="70" y="399"/>
      <point x="74" y="396" type="curve" smooth="yes"/>
      <point x="78" y="393"/>
      <point x="84" y="392"/>
      <point x="90" y="392" type="curve" smooth="yes"/>
      <point x="98" y="392"/>
      <point x="105" y="394"/>
      <point x="113" y="400" type="curve" smooth="yes"/>
      <point x="121" y="406"/>
      <point x="131" y="411"/>
      <point x="142" y="418" type="curve" smooth="yes"/>
      <point x="153" y="425"/>
      <point x="165" y="430"/>
      <point x="180" y="436" type="curve" smooth="yes"/>
      <point x="195" y="442"/>
      <point x="213" y="445"/>
      <point x="235" y="445" type="curve" smooth="yes"/>
      <point x="268" y="445"/>
      <point x="293" y="434"/>
      <point x="310" y="414" type="curve" smooth="yes"/>
      <point x="327" y="394"/>
      <point x="336" y="364"/>
      <point x="336" y="324" type="curve" smooth="yes"/>
      <point x="336" y="285" type="line"/>
      <point x="278" y="285"/>
      <point x="230" y="281"/>
      <point x="190" y="272" type="curve" smooth="yes"/>
      <point x="150" y="263"/>
      <point x="118" y="250"/>
      <point x="94" y="236" type="curve" smooth="yes"/>
      <point x="70" y="222"/>
      <point x="51" y="204"/>
      <point x="40" y="186" type="curve" smooth="yes"/>
      <point x="29" y="168"/>
      <point x="24" y="148"/>
      <point x="24" y="128" type="curve" smooth="yes"/>
      <point x="24" y="105"/>
      <point x="27" y="85"/>
      <point x="35" y="68" type="curve" smooth="yes"/>
      <point x="43" y="51"/>
      <point x="53" y="37"/>
      <point x="65" y="26" type="curve" smooth="yes"/>
      <point x="77" y="15"/>
      <point x="93" y="8"/>
      <point x="110" y="2" type="curve" smooth="yes"/>
      <point x="127" y="-4"/>
      <point x="144" y="-7"/>
      <point x="164" y="-7" type="curve" smooth="yes"/>
      <point x="184" y="-7"/>
      <point x="202" y="-6"/>
      <point x="218" y="-2" type="curve" smooth="yes"/>
      <point x="234" y="2"/>
      <point x="248" y="7"/>
      <point x="262" y="13" type="curve" smooth="yes"/>
      <point x="276" y="19"/>
      <point x="290" y="27"/>
      <point x="302" y="37" type="curve" smooth="yes"/>
      <point x="314" y="47"/>
      <point x="328" y="58"/>
      <point x="342" y="70" type="curve"/>
      <point x="352" y="22" type="line"/>
      <point x="354" y="14"/>
      <point x="356" y="8"/>
      <point x="362" y="6" type="curve" smooth="yes"/>
      <point x="368" y="4"/>
      <point x="375" y="2"/>
      <point x="383" y="2" type="curve" smooth="yes"/>
      <point x="415" y="2" type="line"/>
      <point x="422" y="2" type="line"/>
      <point x="487" y="2" type="line"/>
      <point x="487" y="45" type="line" smooth="yes"/>
      <point x="487" y="54"/>
      <point x="481" y="62"/>
      <point x="472" y="64" type="curve"/>
    </contour>
    <contour>
      <point x="334" y="124" type="line"/>
      <point x="324" y="114"/>
      <point x="314" y="104"/>
      <point x="304" y="96" type="curve" smooth="yes"/>
      <point x="294" y="88"/>
      <point x="283" y="80"/>
      <point x="271" y="74" type="curve" smooth="yes"/>
      <point x="259" y="68"/>
      <point x="247" y="64"/>
      <point x="234" y="61" type="curve" smooth="yes"/>
      <point x="221" y="58"/>
      <point x="208" y="56"/>
      <point x="192" y="56" type="curve" smooth="yes"/>
      <point x="180" y="56"/>
      <point x="169" y="58"/>
      <point x="159" y="61" type="curve" smooth="yes"/>
      <point x="149" y="64"/>
      <point x="141" y="68"/>
      <point x="133" y="74" type="curve" smooth="yes"/>
      <point x="125" y="80"/>
      <point x="119" y="88"/>
      <point x="115" y="98" type="curve" smooth="yes"/>
      <point x="111" y="108"/>
      <point x="108" y="118"/>
      <point x="108" y="132" type="curve" smooth="yes"/>
      <point x="108" y="146"/>
      <point x="112" y="158"/>
      <point x="120" y="170" type="curve" smooth="yes"/>
      <point x="128" y="182"/>
      <point x="142" y="192"/>
      <point x="160" y="200" type="curve" smooth="yes"/>
      <point x="178" y="208"/>
      <point x="202" y="216"/>
      <point x="230" y="221" type="curve" smooth="yes"/>
      <point x="258" y="226"/>
      <point x="293" y="228"/>
      <point x="334" y="228" type="curve"/>
    </contour>
    <contour>
      <point x="462" y="10" type="move" name="ogonek"/>
    </contour>
    <contour>
      <point x="257" y="0" type="move" name="bottom"/>
    </contour>
    <contour>
      <point x="257" y="506" type="move" name="top"/>
    </contour>
  </outline>
</glyph>
<glyph name="d" format="1">
  <advance width="564"/>
  <unicode hex="0064"/>
  <note>
    d
  </note>
  <outline>
    <contour>
      <point x="242" y="516" type="line"/>
      <point x="175" y="516"/>
      <point x="121" y="490"/>
      <point x="81" y="440" type="curve" smooth="yes"/>
      <point x="42" y="392"/>
      <point x="22" y="328"/>
      <point x="22" y="252" type="curve" smooth="yes"/>
      <point x="22" y="168"/>
      <point x="40" y="105"/>
      <point x="74" y="60" type="curve" smooth="yes"/>
      <point x="108" y="16"/>
      <point x="154" y="-6"/>
      <point x="214" y="-6" type="curve" smooth="yes"/>
      <point x="280" y="-6"/>
      <point x="336" y="22"/>
      <point x="384" y="80" type="curve"/>
      <point x="392" y="19" type="line"/>
      <point x="396" y="7"/>
      <point x="404" y="0"/>
      <point x="416" y="0" type="curve" smooth="yes"/>
      <point x="540" y="0" type="line"/>
      <point x="540" y="44" type="line" smooth="yes"/>
      <point x="540" y="54"/>
      <point x="536" y="60"/>
      <point x="526" y="62" type="curve"/>
      <point x="520" y="64"/>
      <point x="500" y="68"/>
      <point x="468" y="74" type="curve"/>
      <point x="468" y="738" type="line"/>
      <point x="298" y="738" type="line"/>
      <point x="298" y="694" type="line" smooth="yes"/>
      <point x="298" y="684"/>
      <point x="303" y="678"/>
      <point x="313" y="676" type="curve" smooth="yes"/>
      <point x="323" y="674"/>
      <point x="346" y="670"/>
      <point x="380" y="664" type="curve"/>
      <point x="380" y="456" type="line"/>
      <point x="344" y="496"/>
      <point x="297" y="516"/>
      <point x="241" y="516" type="curve"/>
    </contour>
    <contour>
      <point x="243" y="66" type="line"/>
      <point x="223" y="66"/>
      <point x="204" y="69"/>
      <point x="188" y="76" type="curve" smooth="yes"/>
      <point x="138" y="98"/>
      <point x="114" y="156"/>
      <point x="114" y="252" type="curve" smooth="yes"/>
      <point x="114" y="314"/>
      <point x="126" y="362"/>
      <point x="152" y="396" type="curve" smooth="yes"/>
      <point x="178" y="430"/>
      <point x="215" y="446"/>
      <point x="263" y="446" type="curve" smooth="yes"/>
      <point x="311" y="446"/>
      <point x="350" y="426"/>
      <point x="380" y="386" type="curve"/>
      <point x="380" y="142" type="line"/>
      <point x="342" y="91"/>
      <point x="296" y="65"/>
      <point x="244" y="65" type="curve"/>
    </contour>
    <contour>
      <point x="282" y="0" type="move" name="bottom"/>
    </contour>
    <contour>
      <point x="282" y="506" type="move" name="top"/>
    </contour>
    <contour>
      <point x="544" y="506" type="move" name="topright"/>
    </contour>
    <contour>
      <point x="282" y="253" type="move" name="center"/>
    </contour>
  </outline>
</glyph>
<glyph name="t" format="1">
  <advance width="363"/>
  <unicode hex="0074"/>
  <note>
    t
  </note>
  <outline>
    <contour>
      <point x="240" y="-8"/>
      <point x="262" y="-4"/>
      <point x="284" y="4" type="curve" smooth="yes"/>
      <point x="306" y="12"/>
      <point x="324" y="24"/>
      <point x="340" y="38" type="curve"/>
      <point x="314" y="80" type="line" smooth="yes"/>
      <point x="310" y="86"/>
      <point x="306" y="88"/>
      <point x="302" y="88" type="curve" smooth="yes"/>
      <point x="300" y="88"/>
      <point x="296" y="86"/>
      <point x="292" y="84" type="curve" smooth="yes"/>
      <point x="288" y="82"/>
      <point x="285" y="79"/>
      <point x="280" y="76" type="curve" smooth="yes"/>
      <point x="275" y="73"/>
      <point x="269" y="70"/>
      <point x="262" y="68" type="curve" smooth="yes"/>
      <point x="255" y="66"/>
      <point x="247" y="64"/>
      <point x="237" y="64" type="curve" smooth="yes"/>
      <point x="221" y="64"/>
      <point x="206" y="69"/>
      <point x="196" y="79" type="curve" smooth="yes"/>
      <point x="186" y="89"/>
      <point x="181" y="105"/>
      <point x="181" y="127" type="curve" smooth="yes"/>
      <point x="181" y="431" type="line"/>
      <point x="326" y="431" type="line"/>
      <point x="326" y="496" type="line"/>
      <point x="181" y="496" type="line"/>
      <point x="181" y="670" type="line"/>
      <point x="136" y="670" type="line" smooth="yes"/>
      <point x="130" y="670"/>
      <point x="126" y="669"/>
      <point x="122" y="666" type="curve" smooth="yes"/>
      <point x="118" y="663"/>
      <point x="116" y="659"/>
      <point x="116" y="654" type="curve"/>
      <point x="96" y="497" type="line"/>
      <point x="13" y="486" type="line"/>
      <point x="13" y="451" type="line" smooth="yes"/>
      <point x="13" y="445"/>
      <point x="14" y="439"/>
      <point x="18" y="436" type="curve" smooth="yes"/>
      <point x="22" y="433"/>
      <point x="26" y="432"/>
      <point x="32" y="432" type="curve" smooth="yes"/>
      <point x="93" y="432" type="line"/>
      <point x="93" y="122" type="line" smooth="yes"/>
      <point x="93" y="80"/>
      <point x="103" y="48"/>
      <point x="125" y="26" type="curve" smooth="yes"/>
      <point x="147" y="4"/>
      <point x="177" y="-8"/>
      <point x="217" y="-8" type="curve" smooth="yes"/>
    </contour>
    <contour>
      <point x="182" y="0" type="move" name="bottom"/>
    </contour>
    <contour>
      <point x="182" y="506" type="move" name="top"/>
    </contour>
    <contour>
      <point x="343" y="506" type="move" name="topright"/>
    </contour>
    <contour>
      <point x="182" y="253" type="move" name="center"/>
    </contour>
  </outline>
</glyph>
<glyph name="asciitilde" format="1">
  <advance width="549"/>
  <unicode hex="007E"/>
  <note>
    asciitilde
  </note>
  <outline>
    <contour>
      <point x="352" y="306"/>
      <point x="339" y="308"/>
      <point x="325" y="314" type="curve" smooth="yes"/>
      <point x="311" y="320"/>
      <point x="296" y="326"/>
      <point x="280" y="332" type="curve" smooth="yes"/>
      <point x="264" y="338"/>
      <point x="247" y="344"/>
      <point x="230" y="350" type="curve" smooth="yes"/>
      <point x="213" y="356"/>
      <point x="196" y="358"/>
      <point x="178" y="358" type="curve" smooth="yes"/>
      <point x="156" y="358"/>
      <point x="137" y="355"/>
      <point x="120" y="347" type="curve" smooth="yes"/>
      <point x="103" y="339"/>
      <point x="90" y="330"/>
      <point x="78" y="316" type="curve" smooth="yes"/>
      <point x="66" y="302"/>
      <point x="58" y="286"/>
      <point x="52" y="268" type="curve" smooth="yes"/>
      <point x="46" y="250"/>
      <point x="42" y="228"/>
      <point x="42" y="206" type="curve"/>
      <point x="114" y="206" type="line"/>
      <point x="114" y="230"/>
      <point x="121" y="248"/>
      <point x="133" y="262" type="curve" smooth="yes"/>
      <point x="145" y="276"/>
      <point x="162" y="284"/>
      <point x="184" y="284" type="curve" smooth="yes"/>
      <point x="196" y="284"/>
      <point x="209" y="281"/>
      <point x="223" y="275" type="curve" smooth="yes"/>
      <point x="237" y="269"/>
      <point x="252" y="263"/>
      <point x="268" y="257" type="curve" smooth="yes"/>
      <point x="284" y="251"/>
      <point x="301" y="245"/>
      <point x="318" y="239" type="curve" smooth="yes"/>
      <point x="335" y="233"/>
      <point x="352" y="231"/>
      <point x="370" y="231" type="curve" smooth="yes"/>
      <point x="392" y="231"/>
      <point x="410" y="234"/>
      <point x="427" y="242" type="curve" smooth="yes"/>
      <point x="444" y="250"/>
      <point x="458" y="260"/>
      <point x="470" y="274" type="curve" smooth="yes"/>
      <point x="482" y="288"/>
      <point x="490" y="304"/>
      <point x="496" y="322" type="curve" smooth="yes"/>
      <point x="502" y="340"/>
      <point x="505" y="361"/>
      <point x="505" y="383" type="curve"/>
      <point x="433" y="383" type="line"/>
      <point x="433" y="359"/>
      <point x="426" y="340"/>
      <point x="414" y="326" type="curve" smooth="yes"/>
      <point x="402" y="312"/>
      <point x="386" y="306"/>
      <point x="364" y="306" type="curve" smooth="yes"/>
    </contour>
  </outline>
</glyph>
<glyph name="paragraph" format="1">
  <advance width="679"/>
  <unicode hex="00B6"/>
  <note>
    paragraph
  </note>
  <outline>
    <contour>
      <point x="656" y="716" type="line"/>
      <point x="251" y="716" type="line" smooth="yes"/>
      <point x="217" y="716"/>
      <point x="186" y="712"/>
      <point x="158" y="702" type="curve" smooth="yes"/>
      <point x="130" y="692"/>
      <point x="108" y="680"/>
      <point x="88" y="663" type="curve" smooth="yes"/>
      <point x="68" y="646"/>
      <point x="52" y="626"/>
      <point x="42" y="602" type="curve" smooth="yes"/>
      <point x="32" y="578"/>
      <point x="26" y="552"/>
      <point x="26" y="524" type="curve" smooth="yes"/>
      <point x="26" y="497"/>
      <point x="32" y="472"/>
      <point x="42" y="448" type="curve" smooth="yes"/>
      <point x="52" y="424"/>
      <point x="67" y="405"/>
      <point x="87" y="387" type="curve" smooth="yes"/>
      <point x="107" y="369"/>
      <point x="130" y="356"/>
      <point x="158" y="346" type="curve" smooth="yes"/>
      <point x="186" y="336"/>
      <point x="216" y="330"/>
      <point x="250" y="330" type="curve"/>
      <point x="250" y="-100" type="line"/>
      <point x="329" y="-100" type="line"/>
      <point x="329" y="640" type="line"/>
      <point x="468" y="640" type="line"/>
      <point x="468" y="-100" type="line"/>
      <point x="546" y="-100" type="line"/>
      <point x="546" y="640" type="line"/>
      <point x="656" y="640" type="line"/>
    </contour>
  </outline>
</glyph>
<glyph name="periodcentered" format="1">
  <advance width="239"/>
  <unicode hex="00B7"/>
  <note>
    periodcentered
  </note>
  <outline>
    <contour>
      <point x="45" y="286"/>
      <point x="47" y="277"/>
      <point x="51" y="268" type="curve" smooth="yes"/>
      <point x="55" y="259"/>
      <point x="61" y="251"/>
      <point x="68" y="244" type="curve" smooth="yes"/>
      <point x="75" y="237"/>
      <point x="83" y="232"/>
      <point x="92" y="228" type="curve" smooth="yes"/>
      <point x="101" y="224"/>
      <point x="110" y="222"/>
      <point x="120" y="222" type="curve" smooth="yes"/>
      <point x="130" y="222"/>
      <point x="140" y="224"/>
      <point x="150" y="228" type="curve" smooth="yes"/>
      <point x="160" y="232"/>
      <point x="168" y="237"/>
      <point x="174" y="244" type="curve" smooth="yes"/>
      <point x="180" y="251"/>
      <point x="186" y="259"/>
      <point x="190" y="268" type="curve" smooth="yes"/>
      <point x="194" y="277"/>
      <point x="196" y="286"/>
      <point x="196" y="296" type="curve" smooth="yes"/>
      <point x="196" y="306"/>
      <point x="194" y="316"/>
      <point x="190" y="326" type="curve" smooth="yes"/>
      <point x="186" y="336"/>
      <point x="180" y="344"/>
      <point x="174" y="350" type="curve" smooth="yes"/>
      <point x="168" y="356"/>
      <point x="160" y="362"/>
      <point x="150" y="366" type="curve" smooth="yes"/>
      <point x="140" y="370"/>
      <point x="130" y="372"/>
      <point x="120" y="372" type="curve" smooth="yes"/>
      <point x="110" y="372"/>
      <point x="101" y="370"/>
      <point x="92" y="366" type="curve" smooth="yes"/>
      <point x="83" y="362"/>
      <point x="75" y="356"/>
      <point x="68" y="350" type="curve" smooth="yes"/>
      <point x="61" y="344"/>
      <point x="55" y="336"/>
      <point x="51" y="326" type="curve" smooth="yes"/>
      <point x="47" y="316"/>
      <point x="45" y="306"/>
      <point x="45" y="296" type="curve" smooth="yes"/>
    </contour>
  </outline>
</glyph>
<glyph name="onesuperior" format="1">
  <advance width="283"/>
  <unicode hex="00B9"/>
  <note>
    onesuperior
  </note>
  <outline>
    <contour>
      <point x="54" y="492" type="line"/>
      <point x="54" y="450" type="line"/>
      <point x="257" y="450" type="line"/>
      <point x="257" y="492" type="line"/>
      <point x="192" y="492" type="line"/>
      <point x="192" y="816" type="line"/>
      <point x="138" y="816" type="line"/>
      <point x="27" y="720" type="line"/>
      <point x="46" y="692" type="line"/>
      <point x="49" y="688"/>
      <point x="54" y="686"/>
      <point x="62" y="686" type="curve" smooth="yes"/>
      <point x="66" y="686"/>
      <point x="72" y="687"/>
      <point x="76" y="690" type="curve"/>
      <point x="129" y="734" type="line"/>
      <point x="127" y="712" type="line"/>
      <point x="127" y="492" type="line"/>
    </contour>
  </outline>
</glyph>
<glyph name="Acircumflex" format="1">
  <advance width="772"/>
  <unicode hex="00C2"/>
  <note>
    Acircumflex
  </note>
  <outline>
    <contour>
      <point x="695" y="68" type="line"/>
      <point x="436" y="716" type="line"/>
      <point x="338" y="716" type="line"/>
      <point x="78" y="68" type="line"/>
      <point x="38" y="56" type="line"/>
      <point x="30" y="54"/>
      <point x="25" y="49"/>
      <point x="25" y="40" type="curve" smooth="yes"/>
      <point x="25" y="0" type="line"/>
      <point x="230" y="0" type="line"/>
      <point x="230" y="40" type="line" smooth="yes"/>
      <point x="230" y="49"/>
      <point x="226" y="54"/>
      <point x="217" y="56" type="curve"/>
      <point x="176" y="68" type="line"/>
      <point x="232" y="212" type="line"/>
      <point x="541" y="212" type="line"/>
      <point x="597" y="68" type="line"/>
      <point x="556" y="56" type="line"/>
      <point x="547" y="54"/>
      <point x="542" y="49"/>
      <point x="542" y="40" type="curve" smooth="yes"/>
      <point x="542" y="0" type="line"/>
      <point x="748" y="0" type="line"/>
      <point x="748" y="40" type="line" smooth="yes"/>
      <point x="748" y="49"/>
      <point x="743" y="54"/>
      <point x="735" y="56" type="curve"/>
    </contour>
    <contour>
      <point x="259" y="282" type="line"/>
      <point x="366" y="557" type="line" smooth="yes"/>
      <point x="372" y="573"/>
      <point x="378" y="595"/>
      <point x="386" y="625" type="curve"/>
      <point x="393" y="598"/>
      <point x="400" y="576"/>
      <point x="408" y="558" type="curve"/>
      <point x="514" y="282" type="line"/>
    </contour>
    <contour>
      <point x="549" y="773" type="line"/>
      <point x="430" y="878" type="line"/>
      <point x="342" y="878" type="line"/>
      <point x="223" y="773" type="line"/>
      <point x="290" y="773" type="line" smooth="yes"/>
      <point x="294" y="773"/>
      <point x="300" y="773"/>
      <point x="304" y="774" type="curve" smooth="yes"/>
      <point x="308" y="775"/>
      <point x="312" y="777"/>
      <point x="315" y="779" type="curve"/>
      <point x="380" y="826" type="line"/>
      <point x="382" y="826"/>
      <point x="384" y="828"/>
      <point x="386" y="830" type="curve"/>
      <point x="388" y="828"/>
      <point x="390" y="828"/>
      <point x="392" y="826" type="curve"/>
      <point x="457" y="778" type="line"/>
      <point x="460" y="776"/>
      <point x="464" y="775"/>
      <point x="468" y="774" type="curve" smooth="yes"/>
      <point x="472" y="773"/>
      <point x="478" y="772"/>
      <point x="482" y="772" type="curve" smooth="yes"/>
    </contour>
  </outline>
</glyph>
<glyph name="Ecircumflex" format="1">
  <advance width="586"/>
  <unicode hex="00CA"/>
  <note>
    Ecircumflex
  </note>
  <outline>
    <contour>
      <point x="34" y="716" type="line"/>
      <point x="34" y="674" type="line" smooth="yes"/>
      <point x="34" y="664"/>
      <point x="38" y="657"/>
      <point x="48" y="655" type="curve"/>
      <point x="54" y="653"/>
      <point x="74" y="649"/>
      <point x="106" y="643" type="curve"/>
      <point x="106" y="72" type="line"/>
      <point x="48" y="61" type="line" smooth="yes"/>
      <point x="38" y="59"/>
      <point x="34" y="52"/>
      <point x="34" y="42" type="curve" smooth="yes"/>
      <point x="34" y="0" type="line"/>
      <point x="547" y="0" type="line"/>
      <point x="547" y="166" type="line"/>
      <point x="499" y="166" type="line" smooth="yes"/>
      <point x="487" y="166"/>
      <point x="480" y="162"/>
      <point x="478" y="150" type="curve"/>
      <point x="478" y="147"/>
      <point x="476" y="122"/>
      <point x="472" y="78" type="curve"/>
      <point x="204" y="78" type="line"/>
      <point x="204" y="323" type="line"/>
      <point x="468" y="323" type="line"/>
      <point x="468" y="399" type="line"/>
      <point x="204" y="399" type="line"/>
      <point x="204" y="637" type="line"/>
      <point x="472" y="637" type="line"/>
      <point x="476" y="589"/>
      <point x="478" y="563"/>
      <point x="478" y="560" type="curve"/>
      <point x="480" y="548"/>
      <point x="488" y="543"/>
      <point x="500" y="543" type="curve" smooth="yes"/>
      <point x="548" y="543" type="line"/>
      <point x="548" y="716" type="line"/>
    </contour>
    <contour>
      <point x="496" y="772" type="line"/>
      <point x="377" y="878" type="line"/>
      <point x="289" y="878" type="line"/>
      <point x="170" y="772" type="line"/>
      <point x="238" y="772" type="line" smooth="yes"/>
      <point x="242" y="772"/>
      <point x="246" y="773"/>
      <point x="250" y="774" type="curve" smooth="yes"/>
      <point x="254" y="775"/>
      <point x="259" y="776"/>
      <point x="262" y="778" type="curve"/>
      <point x="327" y="826" type="line"/>
      <point x="329" y="826"/>
      <point x="331" y="828"/>
      <point x="333" y="830" type="curve"/>
      <point x="335" y="828"/>
      <point x="337" y="828"/>
      <point x="339" y="826" type="curve"/>
      <point x="404" y="778" type="line"/>
      <point x="407" y="776"/>
      <point x="412" y="775"/>
      <point x="416" y="774" type="curve" smooth="yes"/>
      <point x="420" y="773"/>
      <point x="424" y="772"/>
      <point x="428" y="772" type="curve" smooth="yes"/>
    </contour>
  </outline>
</glyph>
<glyph name="Icircumflex" format="1">
  <advance width="335"/>
  <unicode hex="00CE"/>
  <note>
    Icircumflex
  </note>
  <outline>
    <contour>
      <point x="272" y="655" type="line" smooth="yes"/>
      <point x="282" y="657"/>
      <point x="288" y="664"/>
      <point x="288" y="674" type="curve" smooth="yes"/>
      <point x="288" y="716" type="line"/>
      <point x="46" y="716" type="line"/>
      <point x="46" y="674" type="line" smooth="yes"/>
      <point x="46" y="664"/>
      <point x="50" y="658"/>
      <point x="58" y="656" type="curve" smooth="yes"/>
      <point x="66" y="654"/>
      <point x="86" y="650"/>
      <point x="118" y="644" type="curve"/>
      <point x="118" y="73" type="line"/>
      <point x="62" y="62" type="line" smooth="yes"/>
      <point x="52" y="60"/>
      <point x="46" y="53"/>
      <point x="46" y="43" type="curve" smooth="yes"/>
      <point x="46" y="0" type="line"/>
      <point x="288" y="0" type="line"/>
      <point x="288" y="43" type="line" smooth="yes"/>
      <point x="288" y="53"/>
      <point x="284" y="59"/>
      <point x="276" y="61" type="curve" smooth="yes"/>
      <point x="268" y="63"/>
      <point x="248" y="67"/>
      <point x="216" y="73" type="curve"/>
      <point x="216" y="644" type="line"/>
    </contour>
    <contour>
      <point x="331" y="773" type="line"/>
      <point x="212" y="878" type="line"/>
      <point x="124" y="878" type="line"/>
      <point x="5" y="773" type="line"/>
      <point x="72" y="773" type="line" smooth="yes"/>
      <point x="76" y="773"/>
      <point x="82" y="773"/>
      <point x="86" y="774" type="curve" smooth="yes"/>
      <point x="90" y="775"/>
      <point x="94" y="777"/>
      <point x="97" y="779" type="curve"/>
      <point x="162" y="826" type="line"/>
      <point x="164" y="826"/>
      <point x="166" y="828"/>
      <point x="168" y="830" type="curve"/>
      <point x="170" y="828"/>
      <point x="172" y="828"/>
      <point x="174" y="826" type="curve"/>
      <point x="239" y="778" type="line"/>
      <point x="242" y="776"/>
      <point x="246" y="775"/>
      <point x="250" y="774" type="curve" smooth="yes"/>
      <point x="254" y="773"/>
      <point x="260" y="772"/>
      <point x="264" y="772" type="curve" smooth="yes"/>
    </contour>
  </outline>
</glyph>
<glyph name="Uacute" format="1">
  <advance width="749"/>
  <unicode hex="00DA"/>
  <note>
    Uacute
  </note>
  <outline>
    <contour>
      <point x="660" y="716" type="line"/>
      <point x="564" y="716" type="line"/>
      <point x="482" y="716" type="line"/>
      <point x="482" y="674" type="line" smooth="yes"/>
      <point x="482" y="664"/>
      <point x="488" y="657"/>
      <point x="498" y="655" type="curve" smooth="yes"/>
      <point x="503" y="654"/>
      <point x="525" y="650"/>
      <point x="564" y="644" type="curve"/>
      <point x="564" y="281" type="line" smooth="yes"/>
      <point x="564" y="220"/>
      <point x="547" y="171"/>
      <point x="514" y="134" type="curve" smooth="yes"/>
      <point x="480" y="96"/>
      <point x="432" y="77"/>
      <point x="374" y="77" type="curve" smooth="yes"/>
      <point x="316" y="77"/>
      <point x="269" y="96"/>
      <point x="235" y="134" type="curve" smooth="yes"/>
      <point x="201" y="171"/>
      <point x="185" y="221"/>
      <point x="185" y="282" type="curve" smooth="yes"/>
      <point x="185" y="644" type="line"/>
      <point x="225" y="650"/>
      <point x="247" y="654"/>
      <point x="252" y="655" type="curve" smooth="yes"/>
      <point x="262" y="657"/>
      <point x="267" y="664"/>
      <point x="267" y="674" type="curve" smooth="yes"/>
      <point x="267" y="716" type="line"/>
      <point x="16" y="716" type="line"/>
      <point x="16" y="674" type="line" smooth="yes"/>
      <point x="16" y="664"/>
      <point x="22" y="657"/>
      <point x="32" y="655" type="curve"/>
      <point x="38" y="653"/>
      <point x="56" y="649"/>
      <point x="88" y="643" type="curve"/>
      <point x="88" y="280" type="line" smooth="yes"/>
      <point x="88" y="196"/>
      <point x="114" y="128"/>
      <point x="165" y="74" type="curve" smooth="yes"/>
      <point x="217" y="19"/>
      <point x="288" y="-9"/>
      <point x="374" y="-9" type="curve" smooth="yes"/>
      <point x="461" y="-9"/>
      <point x="530" y="19"/>
      <point x="582" y="74" type="curve" smooth="yes"/>
      <point x="632" y="128"/>
      <point x="658" y="196"/>
      <point x="658" y="280" type="curve" smooth="yes"/>
      <point x="658" y="643" type="line"/>
      <point x="716" y="654" type="line" smooth="yes"/>
      <point x="726" y="656"/>
      <point x="731" y="663"/>
      <point x="731" y="673" type="curve" smooth="yes"/>
      <point x="731" y="716" type="line"/>
    </contour>
    <contour>
      <point x="544" y="890" type="line"/>
      <point x="443" y="890" type="line"/>
      <point x="430" y="890" type="line" smooth="yes"/>
      <point x="426" y="890"/>
      <point x="423" y="888"/>
      <point x="420" y="886" type="curve" smooth="yes"/>
      <point x="417" y="884"/>
      <point x="413" y="884"/>
      <point x="410" y="882" type="curve" smooth="yes"/>
      <point x="407" y="880"/>
      <point x="405" y="878"/>
      <point x="401" y="874" type="curve" smooth="yes"/>
      <point x="296" y="772" type="line"/>
      <point x="364" y="772" type="line" smooth="yes"/>
      <point x="371" y="772"/>
      <point x="378" y="772"/>
      <point x="382" y="774" type="curve" smooth="yes"/>
      <point x="386" y="776"/>
      <point x="390" y="778"/>
      <point x="396" y="782" type="curve"/>
    </contour>
  </outline>
</glyph>
<glyph name="edieresis" format="1">
  <advance width="489"/>
  <unicode hex="00EB"/>
  <note>
    edieresis
  </note>
  <outline>
    <contour>
      <point x="257" y="514" type="line"/>
      <point x="221" y="514"/>
      <point x="188" y="508"/>
      <point x="158" y="495" type="curve" smooth="yes"/>
      <point x="128" y="482"/>
      <point x="103" y="464"/>
      <point x="83" y="442" type="curve" smooth="yes"/>
      <point x="63" y="420"/>
      <point x="47" y="392"/>
      <point x="36" y="362" type="curve" smooth="yes"/>
      <point x="25" y="332"/>
      <point x="20" y="300"/>
      <point x="20" y="264" type="curve" smooth="yes"/>
      <point x="20" y="220"/>
      <point x="26" y="182"/>
      <point x="38" y="148" type="curve" smooth="yes"/>
      <point x="50" y="114"/>
      <point x="66" y="86"/>
      <point x="88" y="63" type="curve" smooth="yes"/>
      <point x="110" y="40"/>
      <point x="134" y="22"/>
      <point x="164" y="10" type="curve" smooth="yes"/>
      <point x="194" y="-2"/>
      <point x="225" y="-8"/>
      <point x="260" y="-8" type="curve" smooth="yes"/>
      <point x="278" y="-8"/>
      <point x="298" y="-6"/>
      <point x="316" y="-3" type="curve" smooth="yes"/>
      <point x="334" y="0"/>
      <point x="352" y="5"/>
      <point x="370" y="11" type="curve" smooth="yes"/>
      <point x="388" y="17"/>
      <point x="404" y="26"/>
      <point x="420" y="36" type="curve" smooth="yes"/>
      <point x="436" y="46"/>
      <point x="448" y="56"/>
      <point x="459" y="70" type="curve"/>
      <point x="434" y="103" type="line"/>
      <point x="430" y="109"/>
      <point x="425" y="112"/>
      <point x="417" y="112" type="curve" smooth="yes"/>
      <point x="411" y="112"/>
      <point x="404" y="109"/>
      <point x="396" y="104" type="curve" smooth="yes"/>
      <point x="388" y="99"/>
      <point x="379" y="94"/>
      <point x="367" y="88" type="curve" smooth="yes"/>
      <point x="355" y="82"/>
      <point x="342" y="76"/>
      <point x="326" y="71" type="curve" smooth="yes"/>
      <point x="310" y="66"/>
      <point x="290" y="64"/>
      <point x="268" y="64" type="curve" smooth="yes"/>
      <point x="244" y="64"/>
      <point x="222" y="68"/>
      <point x="202" y="76" type="curve" smooth="yes"/>
      <point x="182" y="84"/>
      <point x="166" y="96"/>
      <point x="152" y="112" type="curve" smooth="yes"/>
      <point x="138" y="128"/>
      <point x="128" y="146"/>
      <point x="120" y="170" type="curve" smooth="yes"/>
      <point x="112" y="194"/>
      <point x="106" y="222"/>
      <point x="106" y="254" type="curve"/>
      <point x="444" y="254" type="line" smooth="yes"/>
      <point x="452" y="254"/>
      <point x="457" y="257"/>
      <point x="460" y="261" type="curve" smooth="yes"/>
      <point x="463" y="265"/>
      <point x="465" y="275"/>
      <point x="465" y="289" type="curve" smooth="yes"/>
      <point x="465" y="325"/>
      <point x="459" y="357"/>
      <point x="449" y="385" type="curve" smooth="yes"/>
      <point x="439" y="413"/>
      <point x="424" y="437"/>
      <point x="406" y="456" type="curve" smooth="yes"/>
      <point x="388" y="475"/>
      <point x="366" y="489"/>
      <point x="340" y="499" type="curve" smooth="yes"/>
      <point x="314" y="509"/>
      <point x="286" y="514"/>
      <point x="256" y="514" type="curve"/>
    </contour>
    <contour>
      <point x="258" y="448" type="line"/>
      <point x="278" y="448"/>
      <point x="296" y="445"/>
      <point x="312" y="438" type="curve" smooth="yes"/>
      <point x="328" y="431"/>
      <point x="341" y="421"/>
      <point x="352" y="409" type="curve" smooth="yes"/>
      <point x="363" y="397"/>
      <point x="372" y="381"/>
      <point x="378" y="364" type="curve" smooth="yes"/>
      <point x="384" y="347"/>
      <point x="386" y="328"/>
      <point x="386" y="308" type="curve"/>
      <point x="110" y="308" type="line"/>
      <point x="116" y="352"/>
      <point x="132" y="387"/>
      <point x="156" y="412" type="curve" smooth="yes"/>
      <point x="180" y="437"/>
      <point x="215" y="449"/>
      <point x="258" y="449" type="curve"/>
    </contour>
    <contour>
      <point x="224" y="652"/>
      <point x="223" y="659"/>
      <point x="220" y="666" type="curve" smooth="yes"/>
      <point x="217" y="673"/>
      <point x="213" y="679"/>
      <point x="207" y="684" type="curve" smooth="yes"/>
      <point x="201" y="689"/>
      <point x="195" y="693"/>
      <point x="188" y="696" type="curve" smooth="yes"/>
      <point x="181" y="699"/>
      <point x="174" y="701"/>
      <point x="166" y="701" type="curve" smooth="yes"/>
      <point x="158" y="701"/>
      <point x="152" y="699"/>
      <point x="146" y="696" type="curve" smooth="yes"/>
      <point x="140" y="693"/>
      <point x="133" y="689"/>
      <point x="128" y="684" type="curve" smooth="yes"/>
      <point x="123" y="679"/>
      <point x="119" y="673"/>
      <point x="116" y="666" type="curve" smooth="yes"/>
      <point x="113" y="659"/>
      <point x="112" y="652"/>
      <point x="112" y="644" type="curve" smooth="yes"/>
      <point x="112" y="636"/>
      <point x="113" y="630"/>
      <point x="116" y="624" type="curve" smooth="yes"/>
      <point x="119" y="618"/>
      <point x="123" y="611"/>
      <point x="128" y="606" type="curve" smooth="yes"/>
      <point x="133" y="601"/>
      <point x="140" y="597"/>
      <point x="146" y="594" type="curve" smooth="yes"/>
      <point x="152" y="591"/>
      <point x="158" y="590"/>
      <point x="166" y="590" type="curve" smooth="yes"/>
      <point x="174" y="590"/>
      <point x="181" y="591"/>
      <point x="188" y="594" type="curve" smooth="yes"/>
      <point x="195" y="597"/>
      <point x="200" y="601"/>
      <point x="206" y="606" type="curve" smooth="yes"/>
      <point x="212" y="611"/>
      <point x="216" y="618"/>
      <point x="219" y="624" type="curve" smooth="yes"/>
      <point x="222" y="630"/>
      <point x="224" y="636"/>
      <point x="224" y="644" type="curve" smooth="yes"/>
    </contour>
    <contour>
      <point x="403" y="644" type="line"/>
      <point x="403" y="652"/>
      <point x="401" y="659"/>
      <point x="398" y="666" type="curve" smooth="yes"/>
      <point x="395" y="673"/>
      <point x="391" y="679"/>
      <point x="386" y="684" type="curve" smooth="yes"/>
      <point x="381" y="689"/>
      <point x="375" y="693"/>
      <point x="368" y="696" type="curve" smooth="yes"/>
      <point x="361" y="699"/>
      <point x="354" y="701"/>
      <point x="346" y="701" type="curve" smooth="yes"/>
      <point x="338" y="701"/>
      <point x="331" y="699"/>
      <point x="324" y="696" type="curve" smooth="yes"/>
      <point x="317" y="693"/>
      <point x="311" y="689"/>
      <point x="306" y="684" type="curve" smooth="yes"/>
      <point x="301" y="679"/>
      <point x="297" y="673"/>
      <point x="294" y="666" type="curve" smooth="yes"/>
      <point x="291" y="659"/>
      <point x="290" y="652"/>
      <point x="290" y="644" type="curve" smooth="yes"/>
      <point x="290" y="636"/>
      <point x="291" y="630"/>
      <point x="294" y="624" type="curve" smooth="yes"/>
      <point x="297" y="618"/>
      <point x="301" y="611"/>
      <point x="306" y="606" type="curve" smooth="yes"/>
      <point x="311" y="601"/>
      <point x="317" y="597"/>
      <point x="324" y="594" type="curve" smooth="yes"/>
      <point x="331" y="591"/>
      <point x="338" y="590"/>
      <point x="346" y="590" type="curve" smooth="yes"/>
      <point x="354" y="590"/>
      <point x="361" y="591"/>
      <point x="368" y="594" type="curve" smooth="yes"/>
      <point x="375" y="597"/>
      <point x="381" y="601"/>
      <point x="386" y="606" type="curve" smooth="yes"/>
      <point x="391" y="611"/>
      <point x="395" y="618"/>
      <point x="398" y="624" type="curve" smooth="yes"/>
      <point x="401" y="630"/>
      <point x="402" y="636"/>
      <point x="402" y="644" type="curve"/>
    </contour>
  </outline>
</glyph>
<glyph name="ograve" format="1">
  <advance width="526"/>
  <unicode hex="00F2"/>
  <note>
    ograve
  </note>
  <outline>
    <contour>
      <point x="226" y="514"/>
      <point x="192" y="508"/>
      <point x="162" y="496" type="curve" smooth="yes"/>
      <point x="132" y="484"/>
      <point x="107" y="466"/>
      <point x="86" y="444" type="curve" smooth="yes"/>
      <point x="65" y="422"/>
      <point x="50" y="394"/>
      <point x="38" y="362" type="curve" smooth="yes"/>
      <point x="26" y="330"/>
      <point x="20" y="294"/>
      <point x="20" y="254" type="curve" smooth="yes"/>
      <point x="20" y="214"/>
      <point x="26" y="178"/>
      <point x="38" y="146" type="curve" smooth="yes"/>
      <point x="50" y="114"/>
      <point x="65" y="86"/>
      <point x="86" y="64" type="curve" smooth="yes"/>
      <point x="107" y="42"/>
      <point x="132" y="24"/>
      <point x="162" y="12" type="curve" smooth="yes"/>
      <point x="192" y="0"/>
      <point x="226" y="-6"/>
      <point x="263" y="-6" type="curve" smooth="yes"/>
      <point x="300" y="-6"/>
      <point x="334" y="0"/>
      <point x="364" y="12" type="curve" smooth="yes"/>
      <point x="394" y="24"/>
      <point x="419" y="42"/>
      <point x="440" y="64" type="curve" smooth="yes"/>
      <point x="461" y="86"/>
      <point x="477" y="114"/>
      <point x="488" y="146" type="curve" smooth="yes"/>
      <point x="499" y="178"/>
      <point x="504" y="214"/>
      <point x="504" y="254" type="curve" smooth="yes"/>
      <point x="504" y="294"/>
      <point x="499" y="330"/>
      <point x="488" y="362" type="curve" smooth="yes"/>
      <point x="477" y="394"/>
      <point x="461" y="422"/>
      <point x="440" y="444" type="curve" smooth="yes"/>
      <point x="419" y="466"/>
      <point x="394" y="484"/>
      <point x="364" y="496" type="curve" smooth="yes"/>
      <point x="334" y="508"/>
      <point x="300" y="514"/>
      <point x="263" y="514" type="curve" smooth="yes"/>
    </contour>
    <contour>
      <point x="237" y="62"/>
      <point x="215" y="68"/>
      <point x="197" y="76" type="curve" smooth="yes"/>
      <point x="179" y="84"/>
      <point x="162" y="96"/>
      <point x="150" y="112" type="curve" smooth="yes"/>
      <point x="138" y="128"/>
      <point x="128" y="148"/>
      <point x="122" y="172" type="curve" smooth="yes"/>
      <point x="116" y="196"/>
      <point x="114" y="222"/>
      <point x="114" y="252" type="curve" smooth="yes"/>
      <point x="114" y="282"/>
      <point x="116" y="310"/>
      <point x="122" y="334" type="curve" smooth="yes"/>
      <point x="128" y="358"/>
      <point x="138" y="378"/>
      <point x="150" y="394" type="curve" smooth="yes"/>
      <point x="162" y="410"/>
      <point x="179" y="424"/>
      <point x="197" y="432" type="curve" smooth="yes"/>
      <point x="215" y="440"/>
      <point x="237" y="444"/>
      <point x="263" y="444" type="curve" smooth="yes"/>
      <point x="313" y="444"/>
      <point x="351" y="428"/>
      <point x="375" y="394" type="curve" smooth="yes"/>
      <point x="399" y="360"/>
      <point x="412" y="313"/>
      <point x="412" y="253" type="curve" smooth="yes"/>
      <point x="412" y="193"/>
      <point x="399" y="146"/>
      <point x="375" y="112" type="curve" smooth="yes"/>
      <point x="351" y="78"/>
      <point x="313" y="62"/>
      <point x="263" y="62" type="curve" smooth="yes"/>
    </contour>
    <contour>
      <point x="130" y="724" type="line"/>
      <point x="246" y="595" type="line"/>
      <point x="250" y="590"/>
      <point x="256" y="586"/>
      <point x="260" y="584" type="curve" smooth="yes"/>
      <point x="264" y="582"/>
      <point x="270" y="582"/>
      <point x="277" y="582" type="curve" smooth="yes"/>
      <point x="328" y="582" type="line"/>
      <point x="254" y="702" type="line"/>
      <point x="250" y="710"/>
      <point x="244" y="715"/>
      <point x="238" y="719" type="curve" smooth="yes"/>
      <point x="232" y="723"/>
      <point x="225" y="724"/>
      <point x="214" y="724" type="curve" smooth="yes"/>
    </contour>
  </outline>
</glyph>
<glyph name="oslash" format="1">
  <advance width="538"/>
  <unicode hex="00F8"/>
  <note>
    oslash
  </note>
  <outline>
    <contour>
      <point x="444" y="442" type="line"/>
      <point x="522" y="548" type="line"/>
      <point x="478" y="548" type="line" smooth="yes"/>
      <point x="468" y="548"/>
      <point x="460" y="546"/>
      <point x="454" y="542" type="curve" smooth="yes"/>
      <point x="448" y="538"/>
      <point x="442" y="532"/>
      <point x="436" y="523" type="curve"/>
      <point x="402" y="478" type="line"/>
      <point x="384" y="490"/>
      <point x="362" y="498"/>
      <point x="340" y="504" type="curve" smooth="yes"/>
      <point x="318" y="510"/>
      <point x="292" y="514"/>
      <point x="266" y="514" type="curve" smooth="yes"/>
      <point x="229" y="514"/>
      <point x="196" y="508"/>
      <point x="166" y="496" type="curve" smooth="yes"/>
      <point x="136" y="484"/>
      <point x="111" y="465"/>
      <point x="90" y="443" type="curve" smooth="yes"/>
      <point x="69" y="421"/>
      <point x="53" y="393"/>
      <point x="41" y="361" type="curve" smooth="yes"/>
      <point x="29" y="329"/>
      <point x="24" y="294"/>
      <point x="24" y="254" type="curve" smooth="yes"/>
      <point x="24" y="212"/>
      <point x="30" y="174"/>
      <point x="42" y="142" type="curve" smooth="yes"/>
      <point x="54" y="110"/>
      <point x="70" y="83"/>
      <point x="92" y="60" type="curve"/>
      <point x="20" y="-38" type="line"/>
      <point x="53" y="-38" type="line" smooth="yes"/>
      <point x="63" y="-38"/>
      <point x="72" y="-36"/>
      <point x="82" y="-32" type="curve" smooth="yes"/>
      <point x="92" y="-28"/>
      <point x="100" y="-22"/>
      <point x="108" y="-12" type="curve" smooth="yes"/>
      <point x="136" y="25" type="line"/>
      <point x="154" y="15"/>
      <point x="174" y="7"/>
      <point x="196" y="1" type="curve" smooth="yes"/>
      <point x="218" y="-5"/>
      <point x="240" y="-8"/>
      <point x="266" y="-8" type="curve" smooth="yes"/>
      <point x="303" y="-8"/>
      <point x="337" y="-2"/>
      <point x="367" y="10" type="curve" smooth="yes"/>
      <point x="397" y="22"/>
      <point x="423" y="40"/>
      <point x="444" y="62" type="curve" smooth="yes"/>
      <point x="465" y="84"/>
      <point x="481" y="112"/>
      <point x="492" y="144" type="curve" smooth="yes"/>
      <point x="503" y="176"/>
      <point x="508" y="212"/>
      <point x="508" y="252" type="curve" smooth="yes"/>
      <point x="508" y="292"/>
      <point x="503" y="328"/>
      <point x="492" y="360" type="curve" smooth="yes"/>
      <point x="481" y="392"/>
      <point x="464" y="419"/>
      <point x="444" y="441" type="curve"/>
    </contour>
    <contour>
      <point x="112" y="282"/>
      <point x="116" y="309"/>
      <point x="122" y="333" type="curve" smooth="yes"/>
      <point x="128" y="357"/>
      <point x="138" y="378"/>
      <point x="151" y="394" type="curve" smooth="yes"/>
      <point x="164" y="410"/>
      <point x="180" y="423"/>
      <point x="200" y="432" type="curve" smooth="yes"/>
      <point x="220" y="441"/>
      <point x="241" y="446"/>
      <point x="267" y="446" type="curve" smooth="yes"/>
      <point x="304" y="446"/>
      <point x="335" y="436"/>
      <point x="359" y="418" type="curve"/>
      <point x="141" y="123" type="line"/>
      <point x="121" y="155"/>
      <point x="112" y="198"/>
      <point x="112" y="252" type="curve" smooth="yes"/>
    </contour>
    <contour>
      <point x="267" y="59" type="line"/>
      <point x="231" y="59"/>
      <point x="202" y="67"/>
      <point x="178" y="83" type="curve"/>
      <point x="395" y="376" type="line"/>
      <point x="413" y="344"/>
      <point x="421" y="302"/>
      <point x="421" y="252" type="curve" smooth="yes"/>
      <point x="421" y="222"/>
      <point x="417" y="195"/>
      <point x="411" y="171" type="curve" smooth="yes"/>
      <point x="405" y="147"/>
      <point x="395" y="126"/>
      <point x="382" y="110" type="curve" smooth="yes"/>
      <point x="369" y="94"/>
      <point x="353" y="81"/>
      <point x="334" y="72" type="curve" smooth="yes"/>
      <point x="315" y="63"/>
      <point x="293" y="58"/>
      <point x="268" y="58" type="curve"/>
    </contour>
  </outline>
</glyph>
<glyph name="circumflex" format="1">
  <advance width="376"/>
  <unicode hex="02C6"/>
  <note>
    circumflex
  </note>
  <outline>
    <contour>
      <point x="341" y="584" type="line"/>
      <point x="230" y="716" type="line"/>
      <point x="146" y="716" type="line"/>
      <point x="35" y="584" type="line"/>
      <point x="96" y="584" type="line" smooth="yes"/>
      <point x="100" y="584"/>
      <point x="104" y="584"/>
      <point x="108" y="586" type="curve" smooth="yes"/>
      <point x="112" y="588"/>
      <point x="114" y="589"/>
      <point x="116" y="591" type="curve" smooth="yes"/>
      <point x="181" y="654" type="line"/>
      <point x="189" y="662" type="line"/>
      <point x="198" y="654" type="line"/>
      <point x="262" y="591" type="line"/>
      <point x="268" y="587"/>
      <point x="275" y="584"/>
      <point x="282" y="584" type="curve" smooth="yes"/>
    </contour>
  </outline>
</glyph>
<glyph name="caron" format="1">
  <advance width="378"/>
  <unicode hex="02C7"/>
  <note>
    caron
  </note>
  <outline>
    <contour>
      <point x="38" y="716" type="line"/>
      <point x="149" y="584" type="line"/>
      <point x="232" y="584" type="line"/>
      <point x="344" y="716" type="line"/>
      <point x="284" y="716" type="line" smooth="yes"/>
      <point x="280" y="716"/>
      <point x="276" y="716"/>
      <point x="272" y="714" type="curve" smooth="yes"/>
      <point x="268" y="712"/>
      <point x="266" y="710"/>
      <point x="264" y="708" type="curve" smooth="yes"/>
      <point x="200" y="646" type="line" smooth="yes"/>
      <point x="198" y="644"/>
      <point x="197" y="644"/>
      <point x="196" y="642" type="curve" smooth="yes"/>
      <point x="195" y="640"/>
      <point x="194" y="639"/>
      <point x="192" y="637" type="curve"/>
      <point x="190" y="641"/>
      <point x="187" y="643"/>
      <point x="183" y="646" type="curve"/>
      <point x="119" y="709" type="line" smooth="yes"/>
      <point x="117" y="711"/>
      <point x="114" y="712"/>
      <point x="110" y="714" type="curve" smooth="yes"/>
      <point x="106" y="716"/>
      <point x="103" y="716"/>
      <point x="99" y="716" type="curve" smooth="yes"/>
    </contour>
  </outline>
</glyph>
<glyph name="ring" format="1">
  <advance width="283"/>
  <unicode hex="02DA"/>
  <note>
    ring
  </note>
  <outline>
    <contour>
      <point x="42" y="658" type="line"/>
      <point x="42" y="644"/>
      <point x="44" y="632"/>
      <point x="50" y="620" type="curve" smooth="yes"/>
      <point x="56" y="608"/>
      <point x="63" y="599"/>
      <point x="72" y="591" type="curve" smooth="yes"/>
      <point x="81" y="583"/>
      <point x="92" y="576"/>
      <point x="104" y="572" type="curve" smooth="yes"/>
      <point x="116" y="568"/>
      <point x="128" y="565"/>
      <point x="142" y="565" type="curve" smooth="yes"/>
      <point x="156" y="565"/>
      <point x="168" y="568"/>
      <point x="180" y="572" type="curve" smooth="yes"/>
      <point x="192" y="576"/>
      <point x="202" y="582"/>
      <point x="212" y="590" type="curve" smooth="yes"/>
      <point x="222" y="598"/>
      <point x="228" y="607"/>
      <point x="234" y="619" type="curve" smooth="yes"/>
      <point x="240" y="631"/>
      <point x="242" y="642"/>
      <point x="242" y="656" type="curve" smooth="yes"/>
      <point x="242" y="670"/>
      <point x="240" y="682"/>
      <point x="234" y="694" type="curve" smooth="yes"/>
      <point x="228" y="706"/>
      <point x="222" y="716"/>
      <point x="212" y="724" type="curve" smooth="yes"/>
      <point x="202" y="732"/>
      <point x="192" y="740"/>
      <point x="180" y="744" type="curve" smooth="yes"/>
      <point x="168" y="748"/>
      <point x="155" y="750"/>
      <point x="141" y="750" type="curve" smooth="yes"/>
      <point x="127" y="750"/>
      <point x="115" y="748"/>
      <point x="103" y="744" type="curve" smooth="yes"/>
      <point x="91" y="740"/>
      <point x="81" y="732"/>
      <point x="72" y="724" type="curve" smooth="yes"/>
      <point x="63" y="716"/>
      <point x="56" y="706"/>
      <point x="50" y="694" type="curve" smooth="yes"/>
      <point x="44" y="682"/>
      <point x="42" y="670"/>
      <point x="42" y="656" type="curve"/>
    </contour>
    <contour>
      <point x="92" y="671"/>
      <point x="96" y="682"/>
      <point x="105" y="692" type="curve" smooth="yes"/>
      <point x="114" y="702"/>
      <point x="126" y="706"/>
      <point x="142" y="706" type="curve" smooth="yes"/>
      <point x="157" y="706"/>
      <point x="169" y="702"/>
      <point x="178" y="692" type="curve" smooth="yes"/>
      <point x="187" y="682"/>
      <point x="192" y="671"/>
      <point x="192" y="656" type="curve" smooth="yes"/>
      <point x="192" y="642"/>
      <point x="187" y="630"/>
      <point x="178" y="620" type="curve" smooth="yes"/>
      <point x="169" y="610"/>
      <point x="157" y="606"/>
      <point x="142" y="606" type="curve" smooth="yes"/>
      <point x="126" y="606"/>
      <point x="114" y="610"/>
      <point x="105" y="620" type="curve" smooth="yes"/>
      <point x="96" y="630"/>
      <point x="92" y="642"/>
      <point x="92" y="656" type="curve" smooth="yes"/>
    </contour>
  </outline>
</glyph>
<glyph name="ogonek" format="1">
  <advance width="264"/>
  <unicode hex="02DB"/>
  <note>
    ogonek
  </note>
  <outline>
    <contour>
      <point x="200" y="-106" type="line"/>
      <point x="198" y="-106"/>
      <point x="196" y="-106"/>
      <point x="194" y="-108" type="curve" smooth="yes"/>
      <point x="192" y="-110"/>
      <point x="190" y="-110"/>
      <point x="186" y="-112" type="curve" smooth="yes"/>
      <point x="182" y="-114"/>
      <point x="179" y="-115"/>
      <point x="174" y="-116" type="curve" smooth="yes"/>
      <point x="169" y="-117"/>
      <point x="162" y="-118"/>
      <point x="154" y="-118" type="curve" smooth="yes"/>
      <point x="140" y="-118"/>
      <point x="130" y="-114"/>
      <point x="122" y="-107" type="curve" smooth="yes"/>
      <point x="114" y="-100"/>
      <point x="110" y="-90"/>
      <point x="110" y="-78" type="curve" smooth="yes"/>
      <point x="110" y="-70"/>
      <point x="111" y="-61"/>
      <point x="115" y="-53" type="curve" smooth="yes"/>
      <point x="119" y="-45"/>
      <point x="122" y="-38"/>
      <point x="128" y="-32" type="curve" smooth="yes"/>
      <point x="134" y="-26"/>
      <point x="141" y="-19"/>
      <point x="148" y="-14" type="curve" smooth="yes"/>
      <point x="155" y="-9"/>
      <point x="162" y="-5"/>
      <point x="168" y="-1" type="curve"/>
      <point x="122" y="6" type="line"/>
      <point x="110" y="0"/>
      <point x="100" y="-8"/>
      <point x="90" y="-16" type="curve" smooth="yes"/>
      <point x="80" y="-24"/>
      <point x="71" y="-33"/>
      <point x="64" y="-42" type="curve" smooth="yes"/>
      <point x="57" y="-51"/>
      <point x="52" y="-60"/>
      <point x="48" y="-70" type="curve" smooth="yes"/>
      <point x="44" y="-80"/>
      <point x="42" y="-90"/>
      <point x="42" y="-100" type="curve" smooth="yes"/>
      <point x="42" y="-122"/>
      <point x="51" y="-140"/>
      <point x="68" y="-153" type="curve" smooth="yes"/>
      <point x="85" y="-166"/>
      <point x="107" y="-172"/>
      <point x="137" y="-172" type="curve" smooth="yes"/>
      <point x="154" y="-172"/>
      <point x="170" y="-170"/>
      <point x="186" y="-165" type="curve" smooth="yes"/>
      <point x="202" y="-160"/>
      <point x="214" y="-154"/>
      <point x="224" y="-146" type="curve"/>
      <point x="210" y="-114" type="line"/>
      <point x="210" y="-112"/>
      <point x="208" y="-111"/>
      <point x="206" y="-109" type="curve" smooth="yes"/>
      <point x="204" y="-107"/>
      <point x="202" y="-107"/>
      <point x="200" y="-107" type="curve"/>
    </contour>
  </outline>
</glyph>
<glyph name="dotaccentcomb" format="1">
  <advance width="600"/>
  <unicode hex="0307"/>
  <outline>
    <contour>
      <point x="330" y="588"/>
      <point x="356" y="614"/>
      <point x="356" y="645" type="curve" smooth="yes"/>
      <point x="356" y="675"/>
      <point x="330" y="701"/>
      <point x="300" y="701" type="curve" smooth="yes"/>
      <point x="269" y="701"/>
      <point x="243" y="675"/>
      <point x="243" y="645" type="curve" smooth="yes"/>
      <point x="243" y="614"/>
      <point x="269" y="588"/>
      <point x="300" y="588" type="curve" smooth="yes"/>
    </contour>
    <contour>
      <point x="300" y="701" type="move" name="top"/>
    </contour>
    <contour>
      <point x="300" y="506" type="move" name="_top"/>
    </contour>
  </outline>
</glyph>
<glyph name="ringcomb" format="1">
  <advance width="600"/>
  <unicode hex="030A"/>
  <outline>
    <contour>
      <point x="200" y="629" type="line"/>
      <point x="200" y="576"/>
      <point x="245" y="537"/>
      <point x="299" y="537" type="curve" smooth="yes"/>
      <point x="351" y="537"/>
      <point x="400" y="572"/>
      <point x="400" y="629" type="curve" smooth="yes"/>
      <point x="400" y="683"/>
      <point x="353" y="723"/>
      <point x="299" y="723" type="curve" smooth="yes"/>
      <point x="250" y="723"/>
      <point x="199" y="685"/>
      <point x="199" y="628" type="curve"/>
    </contour>
    <contour>
      <point x="249" y="654"/>
      <point x="265" y="679"/>
      <point x="299" y="679" type="curve" smooth="yes"/>
      <point x="330" y="679"/>
      <point x="349" y="657"/>
      <point x="349" y="628" type="curve" smooth="yes"/>
      <point x="349" y="603"/>
      <point x="332" y="578"/>
      <point x="299" y="578" type="curve" smooth="yes"/>
      <point x="268" y="578"/>
      <point x="249" y="601"/>
      <point x="249" y="628" type="curve" smooth="yes"/>
    </contour>
    <contour>
      <point x="300" y="723" type="move" name="top"/>
    </contour>
    <contour>
      <point x="300" y="506" type="move" name="_top"/>
    </contour>
  </outline>
</glyph>
<glyph name="quoteleft" format="1">
  <advance width="190"/>
  <unicode hex="2018"/>
  <note>
    quoteleft
  </note>
  <outline>
    <contour>
      <point x="68" y="506" type="line"/>
      <point x="122" y="528" type="line" smooth="yes"/>
      <point x="131" y="532"/>
      <point x="136" y="537"/>
      <point x="136" y="545" type="curve" smooth="yes"/>
      <point x="136" y="549"/>
      <point x="134" y="552"/>
      <point x="132" y="556" type="curve"/>
      <point x="124" y="568"/>
      <point x="119" y="580"/>
      <point x="116" y="592" type="curve" smooth="yes"/>
      <point x="113" y="604"/>
      <point x="112" y="616"/>
      <point x="112" y="626" type="curve" smooth="yes"/>
      <point x="112" y="636"/>
      <point x="114" y="645"/>
      <point x="116" y="654" type="curve" smooth="yes"/>
      <point x="118" y="663"/>
      <point x="121" y="672"/>
      <point x="125" y="680" type="curve" smooth="yes"/>
      <point x="129" y="688"/>
      <point x="133" y="694"/>
      <point x="138" y="702" type="curve" smooth="yes"/>
      <point x="143" y="710"/>
      <point x="148" y="718"/>
      <point x="154" y="724" type="curve" smooth="yes"/>
      <point x="158" y="728"/>
      <point x="159" y="732"/>
      <point x="159" y="736" type="curve" smooth="yes"/>
      <point x="159" y="738"/>
      <point x="159" y="740"/>
      <point x="158" y="742" type="curve" smooth="yes"/>
      <point x="157" y="744"/>
      <point x="154" y="745"/>
      <point x="152" y="747" type="curve"/>
      <point x="124" y="764" type="line"/>
      <point x="98" y="741"/>
      <point x="77" y="716"/>
      <point x="62" y="688" type="curve" smooth="yes"/>
      <point x="47" y="660"/>
      <point x="40" y="632"/>
      <point x="40" y="602" type="curve" smooth="yes"/>
      <point x="40" y="586"/>
      <point x="42" y="570"/>
      <point x="46" y="554" type="curve" smooth="yes"/>
      <point x="50" y="538"/>
      <point x="57" y="522"/>
      <point x="67" y="506" type="curve"/>
    </contour>
  </outline>
</glyph>
<glyph name="quotedblbase" format="1">
  <advance width="349"/>
  <unicode hex="201E"/>
  <note>
    quotedblbase
  </note>
  <outline>
    <contour>
      <point x="129" y="120" type="line"/>
      <point x="74" y="98" type="line"/>
      <point x="65" y="94"/>
      <point x="61" y="89"/>
      <point x="61" y="81" type="curve" smooth="yes"/>
      <point x="61" y="77"/>
      <point x="62" y="74"/>
      <point x="64" y="70" type="curve"/>
      <point x="72" y="58"/>
      <point x="77" y="46"/>
      <point x="80" y="34" type="curve" smooth="yes"/>
      <point x="83" y="22"/>
      <point x="85" y="12"/>
      <point x="85" y="2" type="curve" smooth="yes"/>
      <point x="85" y="-8"/>
      <point x="84" y="-18"/>
      <point x="82" y="-27" type="curve" smooth="yes"/>
      <point x="80" y="-36"/>
      <point x="76" y="-44"/>
      <point x="72" y="-52" type="curve" smooth="yes"/>
      <point x="68" y="-60"/>
      <point x="63" y="-68"/>
      <point x="58" y="-76" type="curve" smooth="yes"/>
      <point x="53" y="-84"/>
      <point x="49" y="-91"/>
      <point x="43" y="-97" type="curve" smooth="yes"/>
      <point x="39" y="-101"/>
      <point x="38" y="-105"/>
      <point x="38" y="-109" type="curve" smooth="yes"/>
      <point x="38" y="-111"/>
      <point x="39" y="-113"/>
      <point x="40" y="-115" type="curve" smooth="yes"/>
      <point x="41" y="-117"/>
      <point x="42" y="-118"/>
      <point x="44" y="-120" type="curve"/>
      <point x="72" y="-138" type="line"/>
      <point x="98" y="-115"/>
      <point x="119" y="-90"/>
      <point x="134" y="-62" type="curve" smooth="yes"/>
      <point x="149" y="-34"/>
      <point x="156" y="-5"/>
      <point x="156" y="25" type="curve" smooth="yes"/>
      <point x="156" y="41"/>
      <point x="154" y="57"/>
      <point x="150" y="73" type="curve" smooth="yes"/>
      <point x="146" y="89"/>
      <point x="139" y="105"/>
      <point x="129" y="121" type="curve"/>
    </contour>
    <contour>
      <point x="281" y="121" type="line"/>
      <point x="226" y="99" type="line"/>
      <point x="217" y="95"/>
      <point x="213" y="90"/>
      <point x="213" y="82" type="curve" smooth="yes"/>
      <point x="213" y="78"/>
      <point x="214" y="75"/>
      <point x="216" y="71" type="curve"/>
      <point x="224" y="59"/>
      <point x="229" y="47"/>
      <point x="232" y="35" type="curve" smooth="yes"/>
      <point x="235" y="23"/>
      <point x="237" y="12"/>
      <point x="237" y="2" type="curve" smooth="yes"/>
      <point x="237" y="-8"/>
      <point x="236" y="-17"/>
      <point x="234" y="-26" type="curve" smooth="yes"/>
      <point x="232" y="-35"/>
      <point x="228" y="-44"/>
      <point x="224" y="-52" type="curve" smooth="yes"/>
      <point x="220" y="-60"/>
      <point x="215" y="-68"/>
      <point x="210" y="-76" type="curve" smooth="yes"/>
      <point x="205" y="-84"/>
      <point x="201" y="-90"/>
      <point x="195" y="-96" type="curve" smooth="yes"/>
      <point x="191" y="-100"/>
      <point x="190" y="-104"/>
      <point x="190" y="-108" type="curve" smooth="yes"/>
      <point x="190" y="-110"/>
      <point x="191" y="-112"/>
      <point x="192" y="-114" type="curve" smooth="yes"/>
      <point x="193" y="-116"/>
      <point x="194" y="-118"/>
      <point x="196" y="-120" type="curve"/>
      <point x="224" y="-137" type="line"/>
      <point x="250" y="-114"/>
      <point x="271" y="-90"/>
      <point x="286" y="-62" type="curve" smooth="yes"/>
      <point x="301" y="-34"/>
      <point x="308" y="-4"/>
      <point x="308" y="26" type="curve" smooth="yes"/>
      <point x="308" y="42"/>
      <point x="306" y="58"/>
      <point x="302" y="74" type="curve" smooth="yes"/>
      <point x="298" y="90"/>
      <point x="291" y="106"/>
      <point x="281" y="122" type="curve"/>
    </contour>
  </outline>
</glyph>
<glyph name="hungarumlaut.case" format="1">
  <advance width="461"/>
  <note>
    hungarumlaut.case
  </note>
  <outline>
    <contour>
      <point x="234" y="886" type="line"/>
      <point x="175" y="886" type="line" smooth="yes"/>
      <point x="164" y="886"/>
      <point x="155" y="884"/>
      <point x="149" y="880" type="curve" smooth="yes"/>
      <point x="143" y="876"/>
      <point x="137" y="870"/>
      <point x="131" y="864" type="curve"/>
      <point x="60" y="773" type="line"/>
      <point x="103" y="773" type="line" smooth="yes"/>
      <point x="109" y="773"/>
      <point x="116" y="774"/>
      <point x="120" y="776" type="curve" smooth="yes"/>
      <point x="124" y="778"/>
      <point x="129" y="782"/>
      <point x="133" y="786" type="curve" smooth="yes"/>
    </contour>
    <contour>
      <point x="402" y="885" type="line"/>
      <point x="334" y="885" type="line" smooth="yes"/>
      <point x="324" y="885"/>
      <point x="314" y="883"/>
      <point x="308" y="879" type="curve" smooth="yes"/>
      <point x="302" y="875"/>
      <point x="294" y="869"/>
      <point x="288" y="863" type="curve" smooth="yes"/>
      <point x="199" y="772" type="line"/>
      <point x="247" y="772" type="line" smooth="yes"/>
      <point x="254" y="772"/>
      <point x="260" y="774"/>
      <point x="265" y="776" type="curve" smooth="yes"/>
      <point x="270" y="778"/>
      <point x="274" y="782"/>
      <point x="280" y="786" type="curve"/>
    </contour>
  </outline>
</glyph>
